<?xml version="1.0" standalone="no"?>
<!DOCTYPE svg PUBLIC "-//W3C//DTD SVG 20010904//EN"
 "http://www.w3.org/TR/2001/REC-SVG-20010904/DTD/svg10.dtd">
<svg version="1.0" xmlns="http://www.w3.org/2000/svg"
 width="16.000000pt" height="16.000000pt" viewBox="0 0 16.000000 16.000000"
 preserveAspectRatio="xMidYMid meet">
<metadata>
Created by potrace 1.11, written by Peter Selinger 2001-2013
</metadata>
<g transform="translate(0.000000,16.000000) scale(0.005333,-0.005333)"
fill="#000000" stroke="none">
<path d="M1838 2980 c-20 -11 -71 -31 -113 -45 -42 -14 -98 -36 -123 -50 -26
-13 -94 -41 -151 -60 -57 -20 -149 -56 -204 -80 -55 -25 -132 -52 -171 -61
-39 -8 -91 -24 -116 -35 -25 -11 -67 -25 -95 -33 -57 -15 -533 -182 -554 -194
-8 -5 -17 -14 -19 -20 -6 -20 36 -13 86 13 26 14 54 25 62 25 23 0 117 31 312
103 97 36 185 64 195 61 20 -4 276 82 413 139 47 20 121 45 164 57 43 11 97
32 120 45 35 20 186 74 209 75 4 0 7 -7 7 -15 0 -9 16 -64 35 -123 19 -59 44
-154 55 -212 21 -102 68 -285 135 -520 18 -63 38 -146 44 -185 6 -38 20 -101
31 -140 12 -38 32 -113 45 -165 13 -52 40 -147 60 -210 73 -228 95 -305 95
-332 0 -36 20 -78 37 -78 7 0 13 6 13 13 0 17 -44 180 -86 316 -20 64 -47 152
-60 196 -44 141 -83 309 -82 345 1 19 -11 76 -26 125 -15 50 -65 239 -111 420
-46 182 -87 338 -90 348 -10 25 3 21 41 -13 49 -43 82 -49 105 -19 22 28 33
18 43 -40 3 -20 23 -90 45 -156 21 -66 49 -160 61 -210 12 -49 32 -125 46
-168 13 -43 38 -133 54 -200 17 -67 53 -189 81 -272 27 -82 67 -226 88 -320
21 -93 69 -287 106 -430 108 -419 101 -385 85 -395 -23 -15 -70 -12 -76 5 -4
8 -11 15 -17 15 -25 0 -80 57 -133 138 -57 86 -84 156 -84 219 0 45 -19 83
-42 83 -11 0 -86 -22 -166 -49 -196 -64 -368 -116 -472 -140 -47 -11 -116 -31
-155 -44 -38 -13 -117 -39 -175 -56 -176 -54 -412 -141 -470 -174 -30 -17 -79
-53 -108 -81 -29 -27 -54 -47 -56 -45 -8 8 -106 357 -141 501 -19 80 -46 204
-60 275 -14 70 -36 173 -50 228 -14 55 -36 159 -49 230 -14 72 -32 153 -41
180 -8 28 -31 124 -50 215 -20 91 -51 224 -69 295 -29 112 -35 127 -43 105
-13 -32 -7 -77 22 -165 13 -38 31 -115 40 -170 9 -55 22 -127 30 -160 49 -209
68 -290 104 -455 22 -102 59 -275 81 -385 76 -367 194 -805 245 -906 26 -50
91 -114 133 -130 15 -6 52 -8 82 -4 30 3 98 7 150 9 77 2 110 8 175 33 44 17
118 40 165 52 47 12 126 33 175 46 140 38 294 76 365 90 81 17 257 78 303 105
19 11 72 27 118 34 46 8 122 29 169 46 48 18 102 32 123 31 43 -2 43 -17 0
144 -13 50 -66 263 -119 475 -94 382 -171 668 -198 732 -8 18 -19 62 -26 98
-6 36 -31 127 -56 203 -24 77 -51 169 -59 205 -9 37 -33 121 -54 187 -22 66
-47 146 -56 177 -13 47 -20 59 -41 64 -18 5 -32 0 -50 -16 -22 -21 -26 -22
-50 -9 -66 35 -138 166 -132 242 2 22 -1 41 -7 43 -5 2 -27 -6 -47 -16z m532
-2099 c0 -26 -4 -29 -45 -35 -41 -7 -200 -58 -322 -104 -28 -11 -82 -25 -120
-31 -37 -7 -79 -19 -92 -28 -13 -8 -82 -31 -154 -49 -71 -19 -154 -45 -183
-58 -29 -13 -79 -30 -111 -36 -32 -7 -119 -34 -194 -60 -165 -58 -209 -69
-192 -48 12 14 40 28 178 86 79 34 319 113 410 136 33 8 101 29 150 45 50 17
146 46 215 66 138 41 188 57 335 109 55 19 106 35 113 36 7 0 12 -12 12 -29z
m10 -91 c0 -5 -19 -14 -42 -20 -51 -13 -245 -77 -273 -89 -11 -5 -36 -12 -55
-15 -19 -4 -53 -15 -75 -26 -22 -10 -101 -35 -176 -54 -74 -19 -148 -40 -165
-47 -16 -6 -58 -17 -94 -24 -66 -13 -140 -37 -172 -55 -10 -5 -64 -21 -120
-34 -100 -24 -262 -76 -342 -110 -22 -9 -41 -15 -43 -12 -2 2 2 16 9 31 10 21
17 26 40 23 16 -3 29 1 32 8 2 7 24 15 48 19 24 4 116 31 205 61 90 30 189 59
220 65 31 6 78 21 103 33 46 23 82 34 203 61 38 8 92 26 120 39 29 12 81 31
117 40 36 10 107 33 158 52 51 19 116 41 145 49 60 16 157 19 157 5z m23 -81
c3 -11 3 -19 1 -19 -15 0 -503 -139 -614 -175 -74 -24 -153 -46 -175 -50 -22
-4 -91 -27 -153 -51 -62 -25 -134 -49 -160 -54 -75 -14 -295 -78 -348 -101
-101 -43 -122 -48 -136 -31 -11 12 -11 16 0 20 7 2 18 9 25 16 6 7 77 33 157
59 80 26 153 52 162 57 10 6 27 10 38 10 11 0 67 18 124 39 57 22 130 45 162
51 33 7 77 21 99 33 39 19 86 33 212 62 33 7 96 27 138 44 42 17 85 31 95 31
11 0 45 12 77 26 32 14 81 27 108 29 28 3 64 8 80 13 54 16 103 11 108 -9z
m42 -78 c3 -6 -3 -15 -14 -21 -38 -20 -379 -130 -572 -184 -107 -30 -219 -64
-249 -74 -30 -11 -84 -28 -120 -37 -36 -9 -92 -25 -125 -37 -33 -11 -112 -35
-176 -53 -116 -33 -172 -56 -184 -75 -11 -18 19 -11 186 40 90 28 229 69 309
91 80 23 154 46 165 53 30 19 138 52 248 75 54 11 133 36 176 56 43 19 94 38
112 41 19 3 54 12 79 20 59 18 168 44 186 44 18 0 74 -59 74 -77 0 -7 -10 -13
-21 -13 -12 0 -38 -4 -58 -10 -20 -5 -85 -21 -146 -35 -214 -51 -343 -84 -451
-118 -60 -19 -154 -47 -209 -62 -55 -14 -138 -41 -185 -59 -47 -19 -98 -37
-115 -40 -16 -4 -75 -24 -130 -46 -137 -54 -210 -74 -228 -64 -8 5 -46 38 -83
73 l-67 64 49 19 c27 11 139 47 249 79 110 33 254 77 320 99 66 21 165 50 220
65 55 14 154 45 220 67 119 41 224 71 300 88 70 15 116 28 122 34 10 10 111 7
118 -3z m108 -202 c-5 -5 -51 -16 -100 -24 -50 -7 -103 -20 -119 -28 -80 -41
-471 -159 -589 -177 -90 -14 -232 -53 -406 -111 -48 -16 -92 -29 -100 -29 -29
0 31 30 97 49 38 10 134 42 214 69 178 62 374 121 500 151 52 13 140 36 195
51 55 15 127 31 161 35 33 3 67 11 75 16 21 13 86 12 72 -2z m-1625 -358 c44
-23 58 -47 20 -36 -29 9 -90 57 -96 76 -4 11 -1 10 14 -2 10 -9 38 -26 62 -38z"/>
<path d="M2089 2623 c-1 -5 -1 -11 -1 -14 17 -135 26 -192 42 -243 11 -33 38
-135 60 -226 44 -174 112 -413 184 -639 42 -131 62 -201 141 -506 20 -77 54
-192 75 -255 21 -63 41 -136 44 -162 5 -32 14 -51 26 -58 24 -13 33 1 20 34
-5 14 -66 232 -136 483 -69 252 -150 537 -179 633 -30 96 -61 207 -70 245 -8
39 -44 174 -79 300 -35 127 -71 264 -81 305 -24 106 -25 110 -36 110 -5 0 -10
-3 -10 -7z"/>
</g>
</svg>
